{
  "source": "C:\\Users\\Peter\\Desktop\\stuff\\MIUN\\quantitative_research\\video_compression\\videos\\BVI-HD\\BVI-HD_CDVL_videos\\ORIG\\Hamster_1920x1080_60fps.mp4",
  "output": "C:\\Users\\Peter\\Desktop\\stuff\\MIUN\\quantitative_research\\video_compression\\compressed_videos\\BVI-HD\\vp9\\3\\Hamster_1920x1080_60fps_vp9.webm",
  "codec": "vp9",
  "ok": "Input #0, mov,mp4,m4a,3gp,3g2,mj2, from 'C:\\Users\\Peter\\Desktop\\stuff\\MIUN\\quantitative_research\\video_compression\\videos\\BVI-HD\\BVI-HD_CDVL_videos\\ORIG\\Hamster_1920x1080_60fps.mp4':\n  Metadata:\n    major_brand     : isom\n    minor_version   : 512\n    compatible_brands: isomiso2avc1mp41\n    encoder         : Lavf54.28.101\n  Duration: 00:00:05.00, start: 0.000000, bitrate: 208485 kb/s\n  Stream #0:0[0x1](und): Video: h264 (High 4:4:4 Predictive) (avc1 / 0x31637661), yuv420p(progressive), 1920x1080, 208481 kb/s, 60 fps, 60 tbr, 60 tbn (default)\n    Metadata:\n      handler_name    : VideoHandler\n      vendor_id       : [0][0][0][0]\n[out#0/webm @ 00000274e3fa9780] Codec AVOption b:a (set bitrate (in bits/s)) has not been used for any stream. The most likely reason is either wrong type (e.g. a video option with no video streams) or that it is a private option of some decoder which was not actually used for any stream.\nStream mapping:\n  Stream #0:0 -> #0:0 (h264 (native) -> vp9 (libvpx-vp9))\nPress [q] to stop, [?] for help\n[libvpx-vp9 @ 00000274e47da040] v1.15.2-100-g40561f514\nOutput #0, webm, to 'C:\\Users\\Peter\\Desktop\\stuff\\MIUN\\quantitative_research\\video_compression\\compressed_videos\\BVI-HD\\vp9\\3\\Hamster_1920x1080_60fps_vp9.webm':\n  Metadata:\n    major_brand     : isom\n    minor_version   : 512\n    compatible_brands: isomiso2avc1mp41\n    encoder         : Lavf62.3.100\n  Stream #0:0(und): Video: vp9, yuv420p(tv, progressive), 1920x1080, q=2-31, 3000 kb/s, 60 fps, 1k tbn (default)\n    Metadata:\n      encoder         : Lavc62.11.100 libvpx-vp9\n      handler_name    : VideoHandler\n      vendor_id       : [0][0][0][0]\n    Side data:\n      cpb: bitrate max/min/avg: 0/0/0 buffer size: 3000000 vbv_delay: N/A\nframe=    0 fps=0.0 q=0.0 size=       0KiB time=N/A bitrate=N/A speed=N/A elapsed=0:00:00.52    \nframe=    7 fps=5.6 q=42.0 size=       1KiB time=00:00:00.10 bitrate=  50.6kbits/s speed=0.0795x elapsed=0:00:01.25    \nframe=   12 fps=6.5 q=46.0 size=       1KiB time=00:00:00.20 bitrate=  25.3kbits/s speed=0.109x elapsed=0:00:01.84    \nframe=   17 fps=7.1 q=44.0 size=       1KiB time=00:00:00.28 bitrate=  17.9kbits/s speed=0.119x elapsed=0:00:02.38    \nframe=   22 fps=7.6 q=44.0 size=       1KiB time=00:00:00.36 bitrate=  13.8kbits/s speed=0.126x elapsed=0:00:02.90    \nframe=   26 fps=7.5 q=44.0 size=       1KiB time=00:00:00.43 bitrate=  11.7kbits/s speed=0.125x elapsed=0:00:03.46    \nframe=   31 fps=7.7 q=45.0 size=       1KiB time=00:00:00.51 bitrate=   9.8kbits/s speed=0.129x elapsed=0:00:04.00    \nframe=   36 fps=7.9 q=46.0 size=       1KiB time=00:00:00.60 bitrate=   8.4kbits/s speed=0.132x elapsed=0:00:04.54    \nframe=   41 fps=8.1 q=44.0 size=       1KiB time=00:00:00.68 bitrate=   7.4kbits/s speed=0.134x elapsed=0:00:05.08    \nframe=   45 fps=8.0 q=44.0 size=       1KiB time=00:00:00.75 bitrate=   6.8kbits/s speed=0.133x elapsed=0:00:05.62    \nframe=   49 fps=8.0 q=28.0 size=       1KiB time=00:00:00.81 bitrate=   6.2kbits/s speed=0.133x elapsed=0:00:06.15    \nframe=   53 fps=7.9 q=42.0 size=       1KiB time=00:00:00.88 bitrate=   5.7kbits/s speed=0.132x elapsed=0:00:06.69    \nframe=   58 fps=8.0 q=42.0 size=       1KiB time=00:00:00.96 bitrate=   5.2kbits/s speed=0.134x elapsed=0:00:07.20    \nframe=   63 fps=8.1 q=39.0 size=       1KiB time=00:00:01.05 bitrate=   4.8kbits/s speed=0.136x elapsed=0:00:07.73    \nframe=   68 fps=8.2 q=42.0 size=       1KiB time=00:00:01.13 bitrate=   4.5kbits/s speed=0.137x elapsed=0:00:08.28    \nframe=   72 fps=8.2 q=44.0 size=       1KiB time=00:00:01.20 bitrate=   4.2kbits/s speed=0.136x elapsed=0:00:08.82    \nframe=   76 fps=8.1 q=44.0 size=       1KiB time=00:00:01.26 bitrate=   4.0kbits/s speed=0.135x elapsed=0:00:09.35    \nframe=   80 fps=8.1 q=47.0 size=       1KiB time=00:00:01.33 bitrate=   3.8kbits/s speed=0.135x elapsed=0:00:09.87    \nframe=   84 fps=8.1 q=47.0 size=       1KiB time=00:00:01.40 bitrate=   3.6kbits/s speed=0.135x elapsed=0:00:10.39    \nframe=   89 fps=8.1 q=47.0 size=       1KiB time=00:00:01.48 bitrate=   3.4kbits/s speed=0.136x elapsed=0:00:10.92    \nframe=   93 fps=8.1 q=47.0 size=       1KiB time=00:00:01.55 bitrate=   3.3kbits/s speed=0.135x elapsed=0:00:11.45    \nframe=   96 fps=8.0 q=48.0 size=       1KiB time=00:00:01.60 bitrate=   3.2kbits/s speed=0.134x elapsed=0:00:11.98    \nframe=  100 fps=8.0 q=50.0 size=       1KiB time=00:00:01.66 bitrate=   3.0kbits/s speed=0.133x elapsed=0:00:12.52    \nframe=  103 fps=7.9 q=36.0 size=       1KiB time=00:00:01.71 bitrate=   2.9kbits/s speed=0.131x elapsed=0:00:13.09    \nframe=  108 fps=7.9 q=50.0 size=       1KiB time=00:00:01.80 bitrate=   2.8kbits/s speed=0.132x elapsed=0:00:13.62    \nframe=  112 fps=7.9 q=49.0 size=       1KiB time=00:00:01.86 bitrate=   2.7kbits/s speed=0.132x elapsed=0:00:14.17    \nframe=  116 fps=7.9 q=49.0 size=       1KiB time=00:00:01.93 bitrate=   2.6kbits/s speed=0.132x elapsed=0:00:14.69    \nframe=  121 fps=7.9 q=35.0 size=       1KiB time=00:00:02.01 bitrate=   2.5kbits/s speed=0.132x elapsed=0:00:15.22    \nframe=  125 fps=7.9 q=46.0 size=       1KiB time=00:00:02.08 bitrate=   2.4kbits/s speed=0.132x elapsed=0:00:15.79    \nframe=  129 fps=7.9 q=35.0 size=       1KiB time=00:00:02.15 bitrate=   2.4kbits/s speed=0.132x elapsed=0:00:16.31    \nframe=  135 fps=8.0 q=45.0 size=     512KiB time=00:00:02.25 bitrate=1864.1kbits/s speed=0.134x elapsed=0:00:16.83    \nframe=  140 fps=8.0 q=31.0 size=     512KiB time=00:00:02.33 bitrate=1797.6kbits/s speed=0.134x elapsed=0:00:17.41    \nframe=  145 fps=8.1 q=44.0 size=     512KiB time=00:00:02.41 bitrate=1735.6kbits/s speed=0.135x elapsed=0:00:17.96    \nframe=  149 fps=8.1 q=44.0 size=     512KiB time=00:00:02.48 bitrate=1689.0kbits/s speed=0.134x elapsed=0:00:18.50    \nframe=  153 fps=8.0 q=42.0 size=     512KiB time=00:00:02.55 bitrate=1644.8kbits/s speed=0.134x elapsed=0:00:19.04    \nframe=  158 fps=8.1 q=42.0 size=     512KiB time=00:00:02.63 bitrate=1592.8kbits/s speed=0.135x elapsed=0:00:19.56    \nframe=  162 fps=8.1 q=43.0 size=     512KiB time=00:00:02.70 bitrate=1553.4kbits/s speed=0.134x elapsed=0:00:20.09    \nframe=  167 fps=8.1 q=43.0 size=     512KiB time=00:00:02.78 bitrate=1506.9kbits/s speed=0.135x elapsed=0:00:20.62    \nframe=  171 fps=8.1 q=44.0 size=     512KiB time=00:00:02.85 bitrate=1471.7kbits/s speed=0.135x elapsed=0:00:21.16    \nframe=  175 fps=8.1 q=43.0 size=     512KiB time=00:00:02.91 bitrate=1438.0kbits/s speed=0.134x elapsed=0:00:21.70    \nframe=  179 fps=8.0 q=43.0 size=     512KiB time=00:00:02.98 bitrate=1405.9kbits/s speed=0.134x elapsed=0:00:22.26    \nframe=  184 fps=8.1 q=44.0 size=     512KiB time=00:00:03.06 bitrate=1367.7kbits/s speed=0.134x elapsed=0:00:22.80    \nframe=  189 fps=8.1 q=44.0 size=     512KiB time=00:00:03.15 bitrate=1331.5kbits/s speed=0.135x elapsed=0:00:23.34    \nframe=  193 fps=8.1 q=43.0 size=     512KiB time=00:00:03.21 bitrate=1303.9kbits/s speed=0.135x elapsed=0:00:23.84    \nframe=  198 fps=8.1 q=44.0 size=     512KiB time=00:00:03.30 bitrate=1271.0kbits/s speed=0.135x elapsed=0:00:24.37    \nframe=  203 fps=8.2 q=44.0 size=     512KiB time=00:00:03.38 bitrate=1239.7kbits/s speed=0.136x elapsed=0:00:24.88    \nframe=  207 fps=8.1 q=47.0 size=     512KiB time=00:00:03.45 bitrate=1215.7kbits/s speed=0.136x elapsed=0:00:25.39    \nframe=  212 fps=8.2 q=34.0 size=     512KiB time=00:00:03.53 bitrate=1187.1kbits/s speed=0.136x elapsed=0:00:25.92    \nframe=  216 fps=8.2 q=50.0 size=     512KiB time=00:00:03.60 bitrate=1165.1kbits/s speed=0.136x elapsed=0:00:26.45    \nframe=  219 fps=8.1 q=51.0 size=     512KiB time=00:00:03.65 bitrate=1149.1kbits/s speed=0.135x elapsed=0:00:27.01    \nframe=  222 fps=8.1 q=52.0 size=     512KiB time=00:00:03.70 bitrate=1133.6kbits/s speed=0.134x elapsed=0:00:27.56    \nframe=  225 fps=8.0 q=52.0 size=     512KiB time=00:00:03.75 bitrate=1118.5kbits/s speed=0.133x elapsed=0:00:28.10    \nframe=  229 fps=8.0 q=54.0 size=     512KiB time=00:00:03.81 bitrate=1098.9kbits/s speed=0.133x elapsed=0:00:28.63    \nframe=  233 fps=8.0 q=54.0 size=     512KiB time=00:00:03.88 bitrate=1080.1kbits/s speed=0.133x elapsed=0:00:29.17    \nframe=  237 fps=8.0 q=56.0 size=     512KiB time=00:00:03.95 bitrate=1061.8kbits/s speed=0.133x elapsed=0:00:29.70    \nframe=  241 fps=8.0 q=55.0 size=     512KiB time=00:00:04.01 bitrate=1044.2kbits/s speed=0.133x elapsed=0:00:30.24    \nframe=  246 fps=8.0 q=54.0 size=     512KiB time=00:00:04.10 bitrate=1023.0kbits/s speed=0.133x elapsed=0:00:30.75    \nframe=  250 fps=8.0 q=51.0 size=     512KiB time=00:00:04.16 bitrate=1006.6kbits/s speed=0.133x elapsed=0:00:31.29    \nframe=  254 fps=8.0 q=50.0 size=     512KiB time=00:00:04.23 bitrate= 990.8kbits/s speed=0.133x elapsed=0:00:31.81    \nframe=  259 fps=8.0 q=47.0 size=    1280KiB time=00:00:04.31 bitrate=2429.1kbits/s speed=0.133x elapsed=0:00:32.35    \nframe=  265 fps=8.1 q=46.0 size=    1280KiB time=00:00:04.41 bitrate=2374.1kbits/s speed=0.134x elapsed=0:00:32.88    \nframe=  269 fps=8.0 q=29.0 size=    1280KiB time=00:00:04.48 bitrate=2338.8kbits/s speed=0.134x elapsed=0:00:33.45    \nframe=  274 fps=8.1 q=45.0 size=    1280KiB time=00:00:04.56 bitrate=2296.2kbits/s speed=0.134x elapsed=0:00:33.97    \nframe=  276 fps=8.0 q=44.0 size=    1280KiB time=00:00:04.60 bitrate=2279.5kbits/s speed=0.133x elapsed=0:00:34.50    \nframe=  276 fps=7.9 q=44.0 size=    1280KiB time=00:00:04.60 bitrate=2279.5kbits/s speed=0.131x elapsed=0:00:35.04    \nframe=  276 fps=7.8 q=44.0 size=    1280KiB time=00:00:04.60 bitrate=2279.5kbits/s speed=0.129x elapsed=0:00:35.57    \nframe=  276 fps=7.6 q=44.0 size=    1280KiB time=00:00:04.60 bitrate=2279.5kbits/s speed=0.127x elapsed=0:00:36.09    \n[out#0/webm @ 00000274e3fa9780] video:1641KiB audio:0KiB subtitle:0KiB other streams:0KiB global headers:0KiB muxing overhead: 0.169062%\nframe=  300 fps=8.2 q=40.0 Lsize=    1644KiB time=00:00:05.00 bitrate=2693.3kbits/s speed=0.137x elapsed=0:00:36.49    \n",
  "seconds": 36.846588134765625,
  "probe_out": {}
}